<svg width="60" height="80" viewBox="0 0 60 80" fill="none" xmlns="http://www.w3.org/2000/svg">
    <path d="M44.5 0.5L44.5 79.5" stroke="#E3008C"/>
    <path d="M44 0.5L60 0.499999" stroke="#E3008C"/>
    <path d="M44 79.5L60 79.5" stroke="#E3008C"/>
    <path d="M8.45312 44H7.04688V39.5781H2.58594V44H1.17969V33.8203H2.58594V38.25H7.04688V33.8203H8.45312V44ZM13.7109 42.7812C13.9297 42.7812 14.1198 42.7656 14.2812 42.7344C14.4479 42.7031 14.5964 42.6589 14.7266 42.6016C14.862 42.5443 14.9844 42.474 15.0938 42.3906C15.2083 42.3021 15.3255 42.2057 15.4453 42.1016L16.4219 42.9766C16.2448 43.1536 16.0599 43.3099 15.8672 43.4453C15.6797 43.5807 15.4766 43.6953 15.2578 43.7891C15.0391 43.8828 14.8021 43.9531 14.5469 44C14.2917 44.0521 14.013 44.0781 13.7109 44.0781C13.1693 44.0781 12.7005 43.9844 12.3047 43.7969C11.9089 43.6042 11.5807 43.3411 11.3203 43.0078C11.0599 42.6745 10.8646 42.2839 10.7344 41.8359C10.6094 41.3828 10.5469 40.8932 10.5469 40.3672C10.5469 39.8464 10.6094 39.3594 10.7344 38.9062C10.8594 38.4531 11.0469 38.0599 11.2969 37.7266C11.5521 37.3932 11.8672 37.1302 12.2422 36.9375C12.6172 36.7448 13.0547 36.6484 13.5547 36.6484C14.0547 36.6484 14.4922 36.7448 14.8672 36.9375C15.2422 37.1302 15.5521 37.3932 15.7969 37.7266C16.0469 38.0599 16.2344 38.4531 16.3594 38.9062C16.4844 39.3594 16.5469 39.8464 16.5469 40.3672V40.8906H11.9531C11.974 41.1406 12.026 41.3802 12.1094 41.6094C12.1927 41.8385 12.3073 42.0391 12.4531 42.2109C12.599 42.3828 12.776 42.5208 12.9844 42.625C13.1927 42.7292 13.4349 42.7812 13.7109 42.7812ZM13.5547 37.9453C13.3203 37.9453 13.112 37.9922 12.9297 38.0859C12.7474 38.1797 12.5885 38.3073 12.4531 38.4688C12.3229 38.6302 12.2188 38.8151 12.1406 39.0234C12.0625 39.2318 12.0104 39.4479 11.9844 39.6719H15.1094C15.0729 39.4427 15.013 39.224 14.9297 39.0156C14.8516 38.8073 14.75 38.625 14.625 38.4688C14.5 38.3073 14.349 38.1797 14.1719 38.0859C13.9948 37.9922 13.7891 37.9453 13.5547 37.9453ZM19.9219 42.1797C19.9219 42.237 19.9271 42.2969 19.9375 42.3594C19.9479 42.4219 19.9688 42.4792 20 42.5312C20.0312 42.5833 20.0703 42.625 20.1172 42.6562C20.1693 42.6875 20.2344 42.7031 20.3125 42.7031H21.0938V44H20.1562C20.0833 44 19.9922 43.9974 19.8828 43.9922C19.7786 43.987 19.6667 43.9688 19.5469 43.9375C19.4323 43.901 19.3151 43.8464 19.1953 43.7734C19.0755 43.7005 18.9661 43.5964 18.8672 43.4609C18.7734 43.3255 18.6953 43.1536 18.6328 42.9453C18.5755 42.737 18.5469 42.4818 18.5469 42.1797V33.8203H19.9219V42.1797ZM24.1094 42.1797C24.1094 42.237 24.1146 42.2969 24.125 42.3594C24.1354 42.4219 24.1562 42.4792 24.1875 42.5312C24.2188 42.5833 24.2578 42.625 24.3047 42.6562C24.3568 42.6875 24.4219 42.7031 24.5 42.7031H25.2812V44H24.3438C24.2708 44 24.1797 43.9974 24.0703 43.9922C23.9661 43.987 23.8542 43.9688 23.7344 43.9375C23.6198 43.901 23.5026 43.8464 23.3828 43.7734C23.263 43.7005 23.1536 43.5964 23.0547 43.4609C22.9609 43.3255 22.8828 43.1536 22.8203 42.9453C22.763 42.737 22.7344 42.4818 22.7344 42.1797V33.8203H24.1094V42.1797ZM31.2031 40.0156C31.2031 39.8073 31.1797 39.5833 31.1328 39.3438C31.0859 39.099 31 38.875 30.875 38.6719C30.7552 38.4635 30.5885 38.2917 30.375 38.1562C30.1667 38.0156 29.8984 37.9453 29.5703 37.9453C29.2474 37.9453 28.9792 38.0156 28.7656 38.1562C28.5573 38.2917 28.3932 38.4635 28.2734 38.6719C28.1536 38.875 28.0703 39.099 28.0234 39.3438C27.9766 39.5833 27.9531 39.8073 27.9531 40.0156V40.7266C27.9531 40.9297 27.9766 41.151 28.0234 41.3906C28.0703 41.6302 28.1536 41.8542 28.2734 42.0625C28.3932 42.2656 28.5573 42.4375 28.7656 42.5781C28.9792 42.7135 29.2474 42.7812 29.5703 42.7812C29.8984 42.7812 30.1667 42.7135 30.375 42.5781C30.5885 42.4427 30.7552 42.2734 30.875 42.0703C31 41.862 31.0859 41.638 31.1328 41.3984C31.1797 41.1589 31.2031 40.9349 31.2031 40.7266V40.0156ZM26.5781 40.0156C26.5781 39.8438 26.5938 39.6406 26.625 39.4062C26.6562 39.1719 26.7109 38.9323 26.7891 38.6875C26.8724 38.4375 26.9844 38.1901 27.125 37.9453C27.2656 37.7005 27.4453 37.4844 27.6641 37.2969C27.888 37.1042 28.1562 36.9479 28.4688 36.8281C28.7812 36.7083 29.151 36.6484 29.5781 36.6484C30 36.6484 30.3672 36.7083 30.6797 36.8281C30.9922 36.9479 31.2604 37.1042 31.4844 37.2969C31.7083 37.4844 31.8906 37.7005 32.0312 37.9453C32.1719 38.1901 32.2812 38.4375 32.3594 38.6875C32.4427 38.9323 32.5 39.1719 32.5312 39.4062C32.5625 39.6406 32.5781 39.8438 32.5781 40.0156V40.7266C32.5781 40.8984 32.5625 41.099 32.5312 41.3281C32.5 41.5573 32.4427 41.7969 32.3594 42.0469C32.2812 42.2969 32.1719 42.5443 32.0312 42.7891C31.8906 43.0286 31.7083 43.2448 31.4844 43.4375C31.2604 43.6302 30.9922 43.7865 30.6797 43.9062C30.3672 44.0208 30 44.0781 29.5781 44.0781C29.151 44.0781 28.7812 44.0182 28.4688 43.8984C28.1562 43.7786 27.888 43.625 27.6641 43.4375C27.4453 43.2448 27.2656 43.026 27.125 42.7812C26.9844 42.5365 26.8724 42.2917 26.7891 42.0469C26.7109 41.7969 26.6562 41.5547 26.625 41.3203C26.5938 41.0859 26.5781 40.8828 26.5781 40.7109V40.0156Z" fill="#E3008C"/>
</svg>
