<svg width="60" height="80" viewBox="0 0 60 80" fill="none" xmlns="http://www.w3.org/2000/svg">
    <path d="M15.5 0.5L15.5 79.5" stroke="#E3008C"/>
    <path d="M16 0.5L-4.76837e-07 0.499999" stroke="#E3008C"/>
    <path d="M16 79.5L-4.76837e-07 79.5" stroke="#E3008C"/>
    <path d="M34.4531 44H33.0469V39.5781H28.5859V44H27.1797V33.8203H28.5859V38.25H33.0469V33.8203H34.4531V44ZM39.7109 42.7812C39.9297 42.7812 40.1198 42.7656 40.2812 42.7344C40.4479 42.7031 40.5964 42.6589 40.7266 42.6016C40.862 42.5443 40.9844 42.474 41.0938 42.3906C41.2083 42.3021 41.3255 42.2057 41.4453 42.1016L42.4219 42.9766C42.2448 43.1536 42.0599 43.3099 41.8672 43.4453C41.6797 43.5807 41.4766 43.6953 41.2578 43.7891C41.0391 43.8828 40.8021 43.9531 40.5469 44C40.2917 44.0521 40.013 44.0781 39.7109 44.0781C39.1693 44.0781 38.7005 43.9844 38.3047 43.7969C37.9089 43.6042 37.5807 43.3411 37.3203 43.0078C37.0599 42.6745 36.8646 42.2839 36.7344 41.8359C36.6094 41.3828 36.5469 40.8932 36.5469 40.3672C36.5469 39.8464 36.6094 39.3594 36.7344 38.9062C36.8594 38.4531 37.0469 38.0599 37.2969 37.7266C37.5521 37.3932 37.8672 37.1302 38.2422 36.9375C38.6172 36.7448 39.0547 36.6484 39.5547 36.6484C40.0547 36.6484 40.4922 36.7448 40.8672 36.9375C41.2422 37.1302 41.5521 37.3932 41.7969 37.7266C42.0469 38.0599 42.2344 38.4531 42.3594 38.9062C42.4844 39.3594 42.5469 39.8464 42.5469 40.3672V40.8906H37.9531C37.974 41.1406 38.026 41.3802 38.1094 41.6094C38.1927 41.8385 38.3073 42.0391 38.4531 42.2109C38.599 42.3828 38.776 42.5208 38.9844 42.625C39.1927 42.7292 39.4349 42.7812 39.7109 42.7812ZM39.5547 37.9453C39.3203 37.9453 39.112 37.9922 38.9297 38.0859C38.7474 38.1797 38.5885 38.3073 38.4531 38.4688C38.3229 38.6302 38.2188 38.8151 38.1406 39.0234C38.0625 39.2318 38.0104 39.4479 37.9844 39.6719H41.1094C41.0729 39.4427 41.013 39.224 40.9297 39.0156C40.8516 38.8073 40.75 38.625 40.625 38.4688C40.5 38.3073 40.349 38.1797 40.1719 38.0859C39.9948 37.9922 39.7891 37.9453 39.5547 37.9453ZM45.9219 42.1797C45.9219 42.237 45.9271 42.2969 45.9375 42.3594C45.9479 42.4219 45.9688 42.4792 46 42.5312C46.0312 42.5833 46.0703 42.625 46.1172 42.6562C46.1693 42.6875 46.2344 42.7031 46.3125 42.7031H47.0938V44H46.1562C46.0833 44 45.9922 43.9974 45.8828 43.9922C45.7786 43.987 45.6667 43.9688 45.5469 43.9375C45.4323 43.901 45.3151 43.8464 45.1953 43.7734C45.0755 43.7005 44.9661 43.5964 44.8672 43.4609C44.7734 43.3255 44.6953 43.1536 44.6328 42.9453C44.5755 42.737 44.5469 42.4818 44.5469 42.1797V33.8203H45.9219V42.1797ZM50.1094 42.1797C50.1094 42.237 50.1146 42.2969 50.125 42.3594C50.1354 42.4219 50.1562 42.4792 50.1875 42.5312C50.2188 42.5833 50.2578 42.625 50.3047 42.6562C50.3568 42.6875 50.4219 42.7031 50.5 42.7031H51.2812V44H50.3438C50.2708 44 50.1797 43.9974 50.0703 43.9922C49.9661 43.987 49.8542 43.9688 49.7344 43.9375C49.6198 43.901 49.5026 43.8464 49.3828 43.7734C49.263 43.7005 49.1536 43.5964 49.0547 43.4609C48.9609 43.3255 48.8828 43.1536 48.8203 42.9453C48.763 42.737 48.7344 42.4818 48.7344 42.1797V33.8203H50.1094V42.1797ZM57.2031 40.0156C57.2031 39.8073 57.1797 39.5833 57.1328 39.3438C57.0859 39.099 57 38.875 56.875 38.6719C56.7552 38.4635 56.5885 38.2917 56.375 38.1562C56.1667 38.0156 55.8984 37.9453 55.5703 37.9453C55.2474 37.9453 54.9792 38.0156 54.7656 38.1562C54.5573 38.2917 54.3932 38.4635 54.2734 38.6719C54.1536 38.875 54.0703 39.099 54.0234 39.3438C53.9766 39.5833 53.9531 39.8073 53.9531 40.0156V40.7266C53.9531 40.9297 53.9766 41.151 54.0234 41.3906C54.0703 41.6302 54.1536 41.8542 54.2734 42.0625C54.3932 42.2656 54.5573 42.4375 54.7656 42.5781C54.9792 42.7135 55.2474 42.7812 55.5703 42.7812C55.8984 42.7812 56.1667 42.7135 56.375 42.5781C56.5885 42.4427 56.7552 42.2734 56.875 42.0703C57 41.862 57.0859 41.638 57.1328 41.3984C57.1797 41.1589 57.2031 40.9349 57.2031 40.7266V40.0156ZM52.5781 40.0156C52.5781 39.8438 52.5938 39.6406 52.625 39.4062C52.6562 39.1719 52.7109 38.9323 52.7891 38.6875C52.8724 38.4375 52.9844 38.1901 53.125 37.9453C53.2656 37.7005 53.4453 37.4844 53.6641 37.2969C53.888 37.1042 54.1562 36.9479 54.4688 36.8281C54.7812 36.7083 55.151 36.6484 55.5781 36.6484C56 36.6484 56.3672 36.7083 56.6797 36.8281C56.9922 36.9479 57.2604 37.1042 57.4844 37.2969C57.7083 37.4844 57.8906 37.7005 58.0312 37.9453C58.1719 38.1901 58.2812 38.4375 58.3594 38.6875C58.4427 38.9323 58.5 39.1719 58.5312 39.4062C58.5625 39.6406 58.5781 39.8438 58.5781 40.0156V40.7266C58.5781 40.8984 58.5625 41.099 58.5312 41.3281C58.5 41.5573 58.4427 41.7969 58.3594 42.0469C58.2812 42.2969 58.1719 42.5443 58.0312 42.7891C57.8906 43.0286 57.7083 43.2448 57.4844 43.4375C57.2604 43.6302 56.9922 43.7865 56.6797 43.9062C56.3672 44.0208 56 44.0781 55.5781 44.0781C55.151 44.0781 54.7812 44.0182 54.4688 43.8984C54.1562 43.7786 53.888 43.625 53.6641 43.4375C53.4453 43.2448 53.2656 43.026 53.125 42.7812C52.9844 42.5365 52.8724 42.2917 52.7891 42.0469C52.7109 41.7969 52.6562 41.5547 52.625 41.3203C52.5938 41.0859 52.5781 40.8828 52.5781 40.7109V40.0156Z" fill="#E3008C"/>
</svg>
