<svg width="30" height="97" viewBox="0 0 30 97" fill="none" xmlns="http://www.w3.org/2000/svg">
    <path d="M15.5 1L15.5 79" stroke="#E3008C" stroke-linecap="square" stroke-dasharray="3 3"/>
    <path d="M19.5 79.5L11.5 79.5" stroke="#E3008C" stroke-linecap="square"/>
    <path d="M19.5 0.5L11.5 0.5" stroke="#E3008C" stroke-linecap="square"/>
    <rect y="81" width="30" height="16" fill="#E3008C"/>
    <path d="M9.5332 90.5586C9.5332 90.8018 9.4834 91.0186 9.38379 91.209C9.28418 91.3965 9.14502 91.5547 8.96631 91.6836C8.7876 91.8125 8.57666 91.9106 8.3335 91.978C8.09033 92.0454 7.82666 92.0791 7.54248 92.0791C7.229 92.0791 6.95215 92.0439 6.71191 91.9736C6.47461 91.9033 6.27539 91.8052 6.11426 91.6792C5.95312 91.5532 5.83154 91.4038 5.74951 91.231C5.66748 91.0581 5.62646 90.8677 5.62646 90.6597C5.62646 90.3081 5.72461 90.0049 5.9209 89.75C6.11719 89.4951 6.42041 89.2637 6.83057 89.0557C6.45557 88.8652 6.18164 88.6543 6.00879 88.4229C5.83594 88.1885 5.74951 87.9204 5.74951 87.6187C5.74951 87.4341 5.7876 87.2554 5.86377 87.0825C5.93994 86.9097 6.0542 86.7559 6.20654 86.6211C6.36182 86.4863 6.55518 86.3794 6.78662 86.3003C7.01807 86.2183 7.29053 86.1772 7.604 86.1772C7.8999 86.1772 8.15918 86.2095 8.38184 86.2739C8.60742 86.3354 8.79639 86.4248 8.94873 86.542C9.10107 86.6592 9.21533 86.8013 9.2915 86.9683C9.36768 87.1353 9.40576 87.3213 9.40576 87.5264C9.40576 87.8604 9.31201 88.1445 9.12451 88.3789C8.93994 88.6133 8.67627 88.8184 8.3335 88.9941C8.50342 89.0791 8.66162 89.1729 8.80811 89.2754C8.95459 89.3779 9.08203 89.4922 9.19043 89.6182C9.29883 89.7441 9.38232 89.8848 9.44092 90.04C9.50244 90.1953 9.5332 90.3682 9.5332 90.5586ZM8.62354 87.5879C8.62354 87.3271 8.53125 87.1338 8.34668 87.0078C8.16504 86.8789 7.90869 86.8145 7.57764 86.8145C7.24951 86.8145 6.99316 86.8774 6.80859 87.0034C6.62695 87.1294 6.53613 87.3184 6.53613 87.5703C6.53613 87.6846 6.55811 87.79 6.60205 87.8867C6.646 87.9834 6.71338 88.0742 6.8042 88.1592C6.89795 88.2441 7.01367 88.3276 7.15137 88.4097C7.28906 88.4917 7.45312 88.5752 7.64355 88.6602C7.97461 88.5049 8.2207 88.3438 8.38184 88.1768C8.54297 88.0068 8.62354 87.8105 8.62354 87.5879ZM8.70264 90.6157C8.70264 90.5073 8.68506 90.4019 8.6499 90.2993C8.61475 90.1968 8.55176 90.0957 8.46094 89.9961C8.37012 89.8965 8.24854 89.7969 8.09619 89.6973C7.94385 89.5977 7.75049 89.4951 7.51611 89.3896C7.31689 89.4863 7.14844 89.583 7.01074 89.6797C6.87598 89.7734 6.76611 89.8701 6.68115 89.9697C6.59912 90.0664 6.54053 90.1675 6.50537 90.2729C6.47021 90.3784 6.45264 90.4897 6.45264 90.6069C6.45264 90.7388 6.48047 90.856 6.53613 90.9585C6.59473 91.0581 6.67383 91.1431 6.77344 91.2134C6.87305 91.2837 6.9917 91.3364 7.12939 91.3716C7.26709 91.4067 7.4165 91.4243 7.57764 91.4243C7.73291 91.4243 7.87939 91.4082 8.01709 91.376C8.15479 91.3438 8.27344 91.2954 8.37305 91.231C8.47559 91.1636 8.55615 91.0801 8.61475 90.9805C8.67334 90.8779 8.70264 90.7563 8.70264 90.6157ZM14.6133 89.1304C14.6133 89.5698 14.5693 89.9712 14.4814 90.3345C14.3936 90.6948 14.2603 91.0054 14.0815 91.2661C13.9028 91.5239 13.6802 91.7246 13.4136 91.8682C13.1499 92.0088 12.8394 92.0791 12.4819 92.0791C12.1743 92.0791 11.8945 92.022 11.6426 91.9077C11.3906 91.7905 11.1753 91.6118 10.9966 91.3716C10.8179 91.1313 10.6802 90.8252 10.5835 90.4531C10.4868 90.0811 10.4385 89.6401 10.4385 89.1304C10.4385 88.6909 10.4824 88.2896 10.5703 87.9263C10.6611 87.563 10.7944 87.2524 10.9702 86.9946C11.1489 86.7339 11.3716 86.5332 11.6382 86.3926C11.9048 86.249 12.2153 86.1772 12.5698 86.1772C12.8774 86.1772 13.1572 86.2358 13.4092 86.353C13.6611 86.4673 13.8765 86.646 14.0552 86.8892C14.2339 87.1294 14.3716 87.4355 14.4683 87.8076C14.5649 88.1797 14.6133 88.6206 14.6133 89.1304ZM13.8398 89.1567C13.8398 89.0571 13.8354 88.959 13.8267 88.8623C13.8208 88.7627 13.8135 88.666 13.8047 88.5723L11.3745 90.3784C11.4185 90.5308 11.4741 90.6714 11.5415 90.8003C11.6089 90.9292 11.6895 91.0405 11.7832 91.1343C11.8799 91.2251 11.9883 91.2969 12.1084 91.3496C12.2314 91.3994 12.3706 91.4243 12.5259 91.4243C12.7251 91.4243 12.9053 91.376 13.0664 91.2793C13.2305 91.1826 13.3696 91.0391 13.4839 90.8486C13.5981 90.6582 13.686 90.4224 13.7476 90.1411C13.8091 89.8569 13.8398 89.5288 13.8398 89.1567ZM11.2119 89.104C11.2119 89.1948 11.2119 89.2856 11.2119 89.3765C11.2148 89.4673 11.2207 89.5552 11.2295 89.6401L13.6597 87.8428C13.6157 87.6934 13.5601 87.5571 13.4927 87.4341C13.4253 87.311 13.3447 87.2056 13.251 87.1177C13.1572 87.0269 13.0503 86.9565 12.9302 86.9067C12.8101 86.8569 12.6753 86.832 12.5259 86.832C12.3267 86.832 12.145 86.8804 11.981 86.9771C11.8198 87.0737 11.6821 87.2188 11.5679 87.4121C11.4536 87.6025 11.3657 87.8398 11.3042 88.124C11.2427 88.4053 11.2119 88.7319 11.2119 89.104ZM19.4736 89.7148C19.4736 90.1074 19.418 90.4502 19.3066 90.7432C19.1982 91.0361 19.0474 91.2793 18.854 91.4727C18.6606 91.666 18.4321 91.811 18.1685 91.9077C17.9048 92.0044 17.6191 92.0527 17.3115 92.0527C17.1709 92.0527 17.0303 92.0454 16.8896 92.0308C16.752 92.0161 16.6113 91.9912 16.4678 91.9561V93.8018H15.7031V87.5879H16.3843L16.4326 88.3262C16.6523 88.0244 16.8867 87.8135 17.1357 87.6934C17.3848 87.5703 17.6543 87.5088 17.9443 87.5088C18.1963 87.5088 18.4175 87.5615 18.6079 87.667C18.7983 87.7725 18.958 87.9219 19.0869 88.1152C19.2158 88.3057 19.3125 88.5371 19.377 88.8096C19.4414 89.0791 19.4736 89.3809 19.4736 89.7148ZM18.6914 89.75C18.6914 89.5186 18.6738 89.3062 18.6387 89.1128C18.6064 88.9194 18.5537 88.7539 18.4805 88.6162C18.4072 88.4785 18.3135 88.3716 18.1992 88.2954C18.085 88.2163 17.9487 88.1768 17.7905 88.1768C17.6938 88.1768 17.5957 88.1929 17.4961 88.2251C17.3965 88.2544 17.2925 88.3057 17.1841 88.3789C17.0786 88.4492 16.9658 88.5444 16.8457 88.6646C16.7285 88.7817 16.6025 88.9282 16.4678 89.104V91.2441C16.6084 91.3027 16.7563 91.3496 16.9116 91.3848C17.0669 91.417 17.2192 91.4331 17.3687 91.4331C17.7817 91.4331 18.1055 91.2939 18.3398 91.0156C18.5742 90.7344 18.6914 90.3125 18.6914 89.75ZM24.2065 91.9385C24.0337 91.9824 23.855 92.0132 23.6704 92.0308C23.4858 92.0513 23.2983 92.0615 23.1079 92.0615C22.5542 92.0615 22.1411 91.937 21.8687 91.688C21.5962 91.436 21.46 91.0508 21.46 90.5322V88.2295H20.2251V87.5879H21.46V86.375L22.2246 86.1772V87.5879H24.2065V88.2295H22.2246V90.4707C22.2246 90.7871 22.3081 91.0244 22.4751 91.1826C22.645 91.3379 22.894 91.4155 23.2222 91.4155C23.3628 91.4155 23.5166 91.4053 23.6836 91.3848C23.8506 91.3613 24.0249 91.3262 24.2065 91.2793V91.9385Z" fill="white"/>
</svg>
