<svg width="30" height="97" viewBox="0 0 30 97" fill="none" xmlns="http://www.w3.org/2000/svg">
    <path d="M15.5 18L15.5 96" stroke="#E3008C" stroke-linecap="square" stroke-dasharray="3 3"/>
    <path d="M19.5 96.5L11.5 96.5" stroke="#E3008C" stroke-linecap="square"/>
    <path d="M19.5 17.5L11.5 17.5" stroke="#E3008C" stroke-linecap="square"/>
    <rect width="30" height="16" fill="#E3008C"/>
    <path d="M9.5332 9.55859C9.5332 9.80176 9.4834 10.0186 9.38379 10.209C9.28418 10.3965 9.14502 10.5547 8.96631 10.6836C8.7876 10.8125 8.57666 10.9106 8.3335 10.978C8.09033 11.0454 7.82666 11.0791 7.54248 11.0791C7.229 11.0791 6.95215 11.0439 6.71191 10.9736C6.47461 10.9033 6.27539 10.8052 6.11426 10.6792C5.95312 10.5532 5.83154 10.4038 5.74951 10.231C5.66748 10.0581 5.62646 9.86768 5.62646 9.65967C5.62646 9.30811 5.72461 9.00488 5.9209 8.75C6.11719 8.49512 6.42041 8.26367 6.83057 8.05566C6.45557 7.86523 6.18164 7.6543 6.00879 7.42285C5.83594 7.18848 5.74951 6.92041 5.74951 6.61865C5.74951 6.43408 5.7876 6.25537 5.86377 6.08252C5.93994 5.90967 6.0542 5.75586 6.20654 5.62109C6.36182 5.48633 6.55518 5.37939 6.78662 5.30029C7.01807 5.21826 7.29053 5.17725 7.604 5.17725C7.8999 5.17725 8.15918 5.20947 8.38184 5.27393C8.60742 5.33545 8.79639 5.4248 8.94873 5.54199C9.10107 5.65918 9.21533 5.80127 9.2915 5.96826C9.36768 6.13525 9.40576 6.32129 9.40576 6.52637C9.40576 6.86035 9.31201 7.14453 9.12451 7.37891C8.93994 7.61328 8.67627 7.81836 8.3335 7.99414C8.50342 8.0791 8.66162 8.17285 8.80811 8.27539C8.95459 8.37793 9.08203 8.49219 9.19043 8.61816C9.29883 8.74414 9.38232 8.88477 9.44092 9.04004C9.50244 9.19531 9.5332 9.36816 9.5332 9.55859ZM8.62354 6.58789C8.62354 6.32715 8.53125 6.13379 8.34668 6.00781C8.16504 5.87891 7.90869 5.81445 7.57764 5.81445C7.24951 5.81445 6.99316 5.87744 6.80859 6.00342C6.62695 6.12939 6.53613 6.31836 6.53613 6.57031C6.53613 6.68457 6.55811 6.79004 6.60205 6.88672C6.646 6.9834 6.71338 7.07422 6.8042 7.15918C6.89795 7.24414 7.01367 7.32764 7.15137 7.40967C7.28906 7.4917 7.45312 7.5752 7.64355 7.66016C7.97461 7.50488 8.2207 7.34375 8.38184 7.17676C8.54297 7.00684 8.62354 6.81055 8.62354 6.58789ZM8.70264 9.61572C8.70264 9.50732 8.68506 9.40186 8.6499 9.29932C8.61475 9.19678 8.55176 9.0957 8.46094 8.99609C8.37012 8.89648 8.24854 8.79688 8.09619 8.69727C7.94385 8.59766 7.75049 8.49512 7.51611 8.38965C7.31689 8.48633 7.14844 8.58301 7.01074 8.67969C6.87598 8.77344 6.76611 8.87012 6.68115 8.96973C6.59912 9.06641 6.54053 9.16748 6.50537 9.27295C6.47021 9.37842 6.45264 9.48975 6.45264 9.60693C6.45264 9.73877 6.48047 9.85596 6.53613 9.9585C6.59473 10.0581 6.67383 10.1431 6.77344 10.2134C6.87305 10.2837 6.9917 10.3364 7.12939 10.3716C7.26709 10.4067 7.4165 10.4243 7.57764 10.4243C7.73291 10.4243 7.87939 10.4082 8.01709 10.376C8.15479 10.3438 8.27344 10.2954 8.37305 10.231C8.47559 10.1636 8.55615 10.0801 8.61475 9.98047C8.67334 9.87793 8.70264 9.75635 8.70264 9.61572ZM14.6133 8.13037C14.6133 8.56982 14.5693 8.97119 14.4814 9.33447C14.3936 9.69482 14.2603 10.0054 14.0815 10.2661C13.9028 10.5239 13.6802 10.7246 13.4136 10.8682C13.1499 11.0088 12.8394 11.0791 12.4819 11.0791C12.1743 11.0791 11.8945 11.022 11.6426 10.9077C11.3906 10.7905 11.1753 10.6118 10.9966 10.3716C10.8179 10.1313 10.6802 9.8252 10.5835 9.45312C10.4868 9.08105 10.4385 8.64014 10.4385 8.13037C10.4385 7.69092 10.4824 7.28955 10.5703 6.92627C10.6611 6.56299 10.7944 6.25244 10.9702 5.99463C11.1489 5.73389 11.3716 5.5332 11.6382 5.39258C11.9048 5.24902 12.2153 5.17725 12.5698 5.17725C12.8774 5.17725 13.1572 5.23584 13.4092 5.35303C13.6611 5.46729 13.8765 5.646 14.0552 5.88916C14.2339 6.12939 14.3716 6.43555 14.4683 6.80762C14.5649 7.17969 14.6133 7.62061 14.6133 8.13037ZM13.8398 8.15674C13.8398 8.05713 13.8354 7.95898 13.8267 7.8623C13.8208 7.7627 13.8135 7.66602 13.8047 7.57227L11.3745 9.37842C11.4185 9.53076 11.4741 9.67139 11.5415 9.80029C11.6089 9.9292 11.6895 10.0405 11.7832 10.1343C11.8799 10.2251 11.9883 10.2969 12.1084 10.3496C12.2314 10.3994 12.3706 10.4243 12.5259 10.4243C12.7251 10.4243 12.9053 10.376 13.0664 10.2793C13.2305 10.1826 13.3696 10.0391 13.4839 9.84863C13.5981 9.6582 13.686 9.42236 13.7476 9.14111C13.8091 8.85693 13.8398 8.52881 13.8398 8.15674ZM11.2119 8.104C11.2119 8.19482 11.2119 8.28564 11.2119 8.37646C11.2148 8.46729 11.2207 8.55518 11.2295 8.64014L13.6597 6.84277C13.6157 6.69336 13.5601 6.55713 13.4927 6.43408C13.4253 6.31104 13.3447 6.20557 13.251 6.11768C13.1572 6.02686 13.0503 5.95654 12.9302 5.90674C12.8101 5.85693 12.6753 5.83203 12.5259 5.83203C12.3267 5.83203 12.145 5.88037 11.981 5.97705C11.8198 6.07373 11.6821 6.21875 11.5679 6.41211C11.4536 6.60254 11.3657 6.83984 11.3042 7.12402C11.2427 7.40527 11.2119 7.73193 11.2119 8.104ZM19.4736 8.71484C19.4736 9.10742 19.418 9.4502 19.3066 9.74316C19.1982 10.0361 19.0474 10.2793 18.854 10.4727C18.6606 10.666 18.4321 10.811 18.1685 10.9077C17.9048 11.0044 17.6191 11.0527 17.3115 11.0527C17.1709 11.0527 17.0303 11.0454 16.8896 11.0308C16.752 11.0161 16.6113 10.9912 16.4678 10.9561V12.8018H15.7031V6.58789H16.3843L16.4326 7.32617C16.6523 7.02441 16.8867 6.81348 17.1357 6.69336C17.3848 6.57031 17.6543 6.50879 17.9443 6.50879C18.1963 6.50879 18.4175 6.56152 18.6079 6.66699C18.7983 6.77246 18.958 6.92188 19.0869 7.11523C19.2158 7.30566 19.3125 7.53711 19.377 7.80957C19.4414 8.0791 19.4736 8.38086 19.4736 8.71484ZM18.6914 8.75C18.6914 8.51855 18.6738 8.30615 18.6387 8.11279C18.6064 7.91943 18.5537 7.75391 18.4805 7.61621C18.4072 7.47852 18.3135 7.37158 18.1992 7.29541C18.085 7.21631 17.9487 7.17676 17.7905 7.17676C17.6938 7.17676 17.5957 7.19287 17.4961 7.2251C17.3965 7.25439 17.2925 7.30566 17.1841 7.37891C17.0786 7.44922 16.9658 7.54443 16.8457 7.66455C16.7285 7.78174 16.6025 7.92822 16.4678 8.104V10.2441C16.6084 10.3027 16.7563 10.3496 16.9116 10.3848C17.0669 10.417 17.2192 10.4331 17.3687 10.4331C17.7817 10.4331 18.1055 10.2939 18.3398 10.0156C18.5742 9.73438 18.6914 9.3125 18.6914 8.75ZM24.2065 10.9385C24.0337 10.9824 23.855 11.0132 23.6704 11.0308C23.4858 11.0513 23.2983 11.0615 23.1079 11.0615C22.5542 11.0615 22.1411 10.937 21.8687 10.688C21.5962 10.436 21.46 10.0508 21.46 9.53223V7.22949H20.2251V6.58789H21.46V5.375L22.2246 5.17725V6.58789H24.2065V7.22949H22.2246V9.4707C22.2246 9.78711 22.3081 10.0244 22.4751 10.1826C22.645 10.3379 22.894 10.4155 23.2222 10.4155C23.3628 10.4155 23.5166 10.4053 23.6836 10.3848C23.8506 10.3613 24.0249 10.3262 24.2065 10.2793V10.9385Z" fill="white"/>
</svg>
