<svg width="40" height="80" viewBox="0 0 40 80" fill="none" xmlns="http://www.w3.org/2000/svg">
    <path d="M35.5 1L35.5 79" stroke="#E3008C" stroke-linecap="square" stroke-dasharray="3 3"/>
    <path d="M39.5 79.5L31.5 79.5" stroke="#E3008C" stroke-linecap="square"/>
    <path d="M39.5 0.5L31.5 0.5" stroke="#E3008C" stroke-linecap="square"/>
    <rect y="32" width="30" height="16" fill="#E3008C"/>
    <path d="M9.5332 41.5586C9.5332 41.8018 9.4834 42.0186 9.38379 42.209C9.28418 42.3965 9.14502 42.5547 8.96631 42.6836C8.7876 42.8125 8.57666 42.9106 8.3335 42.978C8.09033 43.0454 7.82666 43.0791 7.54248 43.0791C7.229 43.0791 6.95215 43.0439 6.71191 42.9736C6.47461 42.9033 6.27539 42.8052 6.11426 42.6792C5.95312 42.5532 5.83154 42.4038 5.74951 42.231C5.66748 42.0581 5.62646 41.8677 5.62646 41.6597C5.62646 41.3081 5.72461 41.0049 5.9209 40.75C6.11719 40.4951 6.42041 40.2637 6.83057 40.0557C6.45557 39.8652 6.18164 39.6543 6.00879 39.4229C5.83594 39.1885 5.74951 38.9204 5.74951 38.6187C5.74951 38.4341 5.7876 38.2554 5.86377 38.0825C5.93994 37.9097 6.0542 37.7559 6.20654 37.6211C6.36182 37.4863 6.55518 37.3794 6.78662 37.3003C7.01807 37.2183 7.29053 37.1772 7.604 37.1772C7.8999 37.1772 8.15918 37.2095 8.38184 37.2739C8.60742 37.3354 8.79639 37.4248 8.94873 37.542C9.10107 37.6592 9.21533 37.8013 9.2915 37.9683C9.36768 38.1353 9.40576 38.3213 9.40576 38.5264C9.40576 38.8604 9.31201 39.1445 9.12451 39.3789C8.93994 39.6133 8.67627 39.8184 8.3335 39.9941C8.50342 40.0791 8.66162 40.1729 8.80811 40.2754C8.95459 40.3779 9.08203 40.4922 9.19043 40.6182C9.29883 40.7441 9.38232 40.8848 9.44092 41.04C9.50244 41.1953 9.5332 41.3682 9.5332 41.5586ZM8.62354 38.5879C8.62354 38.3271 8.53125 38.1338 8.34668 38.0078C8.16504 37.8789 7.90869 37.8145 7.57764 37.8145C7.24951 37.8145 6.99316 37.8774 6.80859 38.0034C6.62695 38.1294 6.53613 38.3184 6.53613 38.5703C6.53613 38.6846 6.55811 38.79 6.60205 38.8867C6.646 38.9834 6.71338 39.0742 6.8042 39.1592C6.89795 39.2441 7.01367 39.3276 7.15137 39.4097C7.28906 39.4917 7.45312 39.5752 7.64355 39.6602C7.97461 39.5049 8.2207 39.3438 8.38184 39.1768C8.54297 39.0068 8.62354 38.8105 8.62354 38.5879ZM8.70264 41.6157C8.70264 41.5073 8.68506 41.4019 8.6499 41.2993C8.61475 41.1968 8.55176 41.0957 8.46094 40.9961C8.37012 40.8965 8.24854 40.7969 8.09619 40.6973C7.94385 40.5977 7.75049 40.4951 7.51611 40.3896C7.31689 40.4863 7.14844 40.583 7.01074 40.6797C6.87598 40.7734 6.76611 40.8701 6.68115 40.9697C6.59912 41.0664 6.54053 41.1675 6.50537 41.2729C6.47021 41.3784 6.45264 41.4897 6.45264 41.6069C6.45264 41.7388 6.48047 41.856 6.53613 41.9585C6.59473 42.0581 6.67383 42.1431 6.77344 42.2134C6.87305 42.2837 6.9917 42.3364 7.12939 42.3716C7.26709 42.4067 7.4165 42.4243 7.57764 42.4243C7.73291 42.4243 7.87939 42.4082 8.01709 42.376C8.15479 42.3438 8.27344 42.2954 8.37305 42.231C8.47559 42.1636 8.55615 42.0801 8.61475 41.9805C8.67334 41.8779 8.70264 41.7563 8.70264 41.6157ZM14.6133 40.1304C14.6133 40.5698 14.5693 40.9712 14.4814 41.3345C14.3936 41.6948 14.2603 42.0054 14.0815 42.2661C13.9028 42.5239 13.6802 42.7246 13.4136 42.8682C13.1499 43.0088 12.8394 43.0791 12.4819 43.0791C12.1743 43.0791 11.8945 43.022 11.6426 42.9077C11.3906 42.7905 11.1753 42.6118 10.9966 42.3716C10.8179 42.1313 10.6802 41.8252 10.5835 41.4531C10.4868 41.0811 10.4385 40.6401 10.4385 40.1304C10.4385 39.6909 10.4824 39.2896 10.5703 38.9263C10.6611 38.563 10.7944 38.2524 10.9702 37.9946C11.1489 37.7339 11.3716 37.5332 11.6382 37.3926C11.9048 37.249 12.2153 37.1772 12.5698 37.1772C12.8774 37.1772 13.1572 37.2358 13.4092 37.353C13.6611 37.4673 13.8765 37.646 14.0552 37.8892C14.2339 38.1294 14.3716 38.4355 14.4683 38.8076C14.5649 39.1797 14.6133 39.6206 14.6133 40.1304ZM13.8398 40.1567C13.8398 40.0571 13.8354 39.959 13.8267 39.8623C13.8208 39.7627 13.8135 39.666 13.8047 39.5723L11.3745 41.3784C11.4185 41.5308 11.4741 41.6714 11.5415 41.8003C11.6089 41.9292 11.6895 42.0405 11.7832 42.1343C11.8799 42.2251 11.9883 42.2969 12.1084 42.3496C12.2314 42.3994 12.3706 42.4243 12.5259 42.4243C12.7251 42.4243 12.9053 42.376 13.0664 42.2793C13.2305 42.1826 13.3696 42.0391 13.4839 41.8486C13.5981 41.6582 13.686 41.4224 13.7476 41.1411C13.8091 40.8569 13.8398 40.5288 13.8398 40.1567ZM11.2119 40.104C11.2119 40.1948 11.2119 40.2856 11.2119 40.3765C11.2148 40.4673 11.2207 40.5552 11.2295 40.6401L13.6597 38.8428C13.6157 38.6934 13.5601 38.5571 13.4927 38.4341C13.4253 38.311 13.3447 38.2056 13.251 38.1177C13.1572 38.0269 13.0503 37.9565 12.9302 37.9067C12.8101 37.8569 12.6753 37.832 12.5259 37.832C12.3267 37.832 12.145 37.8804 11.981 37.9771C11.8198 38.0737 11.6821 38.2188 11.5679 38.4121C11.4536 38.6025 11.3657 38.8398 11.3042 39.124C11.2427 39.4053 11.2119 39.7319 11.2119 40.104ZM19.4736 40.7148C19.4736 41.1074 19.418 41.4502 19.3066 41.7432C19.1982 42.0361 19.0474 42.2793 18.854 42.4727C18.6606 42.666 18.4321 42.811 18.1685 42.9077C17.9048 43.0044 17.6191 43.0527 17.3115 43.0527C17.1709 43.0527 17.0303 43.0454 16.8896 43.0308C16.752 43.0161 16.6113 42.9912 16.4678 42.9561V44.8018H15.7031V38.5879H16.3843L16.4326 39.3262C16.6523 39.0244 16.8867 38.8135 17.1357 38.6934C17.3848 38.5703 17.6543 38.5088 17.9443 38.5088C18.1963 38.5088 18.4175 38.5615 18.6079 38.667C18.7983 38.7725 18.958 38.9219 19.0869 39.1152C19.2158 39.3057 19.3125 39.5371 19.377 39.8096C19.4414 40.0791 19.4736 40.3809 19.4736 40.7148ZM18.6914 40.75C18.6914 40.5186 18.6738 40.3062 18.6387 40.1128C18.6064 39.9194 18.5537 39.7539 18.4805 39.6162C18.4072 39.4785 18.3135 39.3716 18.1992 39.2954C18.085 39.2163 17.9487 39.1768 17.7905 39.1768C17.6938 39.1768 17.5957 39.1929 17.4961 39.2251C17.3965 39.2544 17.2925 39.3057 17.1841 39.3789C17.0786 39.4492 16.9658 39.5444 16.8457 39.6646C16.7285 39.7817 16.6025 39.9282 16.4678 40.104V42.2441C16.6084 42.3027 16.7563 42.3496 16.9116 42.3848C17.0669 42.417 17.2192 42.4331 17.3687 42.4331C17.7817 42.4331 18.1055 42.2939 18.3398 42.0156C18.5742 41.7344 18.6914 41.3125 18.6914 40.75ZM24.2065 42.9385C24.0337 42.9824 23.855 43.0132 23.6704 43.0308C23.4858 43.0513 23.2983 43.0615 23.1079 43.0615C22.5542 43.0615 22.1411 42.937 21.8687 42.688C21.5962 42.436 21.46 42.0508 21.46 41.5322V39.2295H20.2251V38.5879H21.46V37.375L22.2246 37.1772V38.5879H24.2065V39.2295H22.2246V41.4707C22.2246 41.7871 22.3081 42.0244 22.4751 42.1826C22.645 42.3379 22.894 42.4155 23.2222 42.4155C23.3628 42.4155 23.5166 42.4053 23.6836 42.3848C23.8506 42.3613 24.0249 42.3262 24.2065 42.2793V42.9385Z" fill="white"/>
</svg>
