<svg width="124" height="26" viewBox="0 0 124 26" fill="none" xmlns="http://www.w3.org/2000/svg">
    <path d="M1 21.5L123 21.5" stroke="#E3008C" stroke-linecap="square" stroke-dasharray="3 3"/>
    <path d="M123.5 17.5V25.5" stroke="#E3008C" stroke-linecap="square"/>
    <path d="M0.5 17.5L0.5 25.5" stroke="#E3008C" stroke-linecap="square"/>
    <rect x="47" width="30" height="16" fill="#E3008C"/>
    <path d="M54.5107 11H50.9028V10.2881H52.3794V6.0957L51.0039 6.84277L50.7227 6.19238L52.5508 5.22998H53.2275V10.2881H54.5107V11ZM59.5073 11H55.7236V10.3145L57.209 8.83789C57.4521 8.59766 57.6499 8.38965 57.8022 8.21387C57.9546 8.03809 58.0732 7.87842 58.1582 7.73486C58.2432 7.58838 58.3003 7.45068 58.3296 7.32178C58.3589 7.19287 58.3735 7.05371 58.3735 6.9043C58.3735 6.76367 58.3545 6.63037 58.3164 6.50439C58.2783 6.37549 58.2197 6.2627 58.1406 6.16602C58.0615 6.06934 57.959 5.99316 57.833 5.9375C57.707 5.88184 57.5562 5.854 57.3804 5.854C57.1372 5.854 56.916 5.9082 56.7168 6.0166C56.5176 6.125 56.3345 6.26562 56.1675 6.43848L55.7456 5.93311C55.9624 5.70459 56.2114 5.52148 56.4927 5.38379C56.7769 5.24609 57.1064 5.17725 57.4814 5.17725C57.7363 5.17725 57.9678 5.21533 58.1758 5.2915C58.3867 5.36768 58.5684 5.47754 58.7207 5.62109C58.873 5.76465 58.9902 5.94043 59.0723 6.14844C59.1572 6.35645 59.1997 6.59082 59.1997 6.85156C59.1997 7.07129 59.1704 7.2749 59.1118 7.4624C59.0532 7.6499 58.9639 7.8374 58.8438 8.0249C58.7266 8.20947 58.5771 8.40137 58.3955 8.60059C58.2168 8.7998 58.0044 9.01807 57.7583 9.25537L56.7168 10.2705H59.5073V11ZM64.7412 9.72998H63.7612V11H62.979V9.72998H60.2148V9.05762L62.6626 5.25635H63.7612V9.05762H64.7412V9.72998ZM62.979 5.99463L60.9795 9.05762H62.979V5.99463ZM69.4478 8.71484C69.4478 9.10742 69.3921 9.4502 69.2808 9.74316C69.1724 10.0361 69.0215 10.2793 68.8281 10.4727C68.6348 10.666 68.4062 10.811 68.1426 10.9077C67.8789 11.0044 67.5933 11.0527 67.2856 11.0527C67.145 11.0527 67.0044 11.0454 66.8638 11.0308C66.7261 11.0161 66.5854 10.9912 66.4419 10.9561V12.8018H65.6772V6.58789H66.3584L66.4067 7.32617C66.6265 7.02441 66.8608 6.81348 67.1099 6.69336C67.3589 6.57031 67.6284 6.50879 67.9185 6.50879C68.1704 6.50879 68.3916 6.56152 68.582 6.66699C68.7725 6.77246 68.9321 6.92188 69.061 7.11523C69.1899 7.30566 69.2866 7.53711 69.3511 7.80957C69.4155 8.0791 69.4478 8.38086 69.4478 8.71484ZM68.6655 8.75C68.6655 8.51855 68.6479 8.30615 68.6128 8.11279C68.5806 7.91943 68.5278 7.75391 68.4546 7.61621C68.3813 7.47852 68.2876 7.37158 68.1733 7.29541C68.0591 7.21631 67.9229 7.17676 67.7646 7.17676C67.668 7.17676 67.5698 7.19287 67.4702 7.2251C67.3706 7.25439 67.2666 7.30566 67.1582 7.37891C67.0527 7.44922 66.9399 7.54443 66.8198 7.66455C66.7026 7.78174 66.5767 7.92822 66.4419 8.104V10.2441C66.5825 10.3027 66.7305 10.3496 66.8857 10.3848C67.041 10.417 67.1934 10.4331 67.3428 10.4331C67.7559 10.4331 68.0796 10.2939 68.314 10.0156C68.5483 9.73438 68.6655 9.3125 68.6655 8.75ZM74.1807 10.9385C74.0078 10.9824 73.8291 11.0132 73.6445 11.0308C73.46 11.0513 73.2725 11.0615 73.082 11.0615C72.5283 11.0615 72.1152 10.937 71.8428 10.688C71.5703 10.436 71.4341 10.0508 71.4341 9.53223V7.22949H70.1992V6.58789H71.4341V5.375L72.1987 5.17725V6.58789H74.1807V7.22949H72.1987V9.4707C72.1987 9.78711 72.2822 10.0244 72.4492 10.1826C72.6191 10.3379 72.8682 10.4155 73.1963 10.4155C73.3369 10.4155 73.4907 10.4053 73.6577 10.3848C73.8247 10.3613 73.999 10.3262 74.1807 10.2793V10.9385Z" fill="white"/>
</svg>
