<svg width="155" height="16" viewBox="0 0 155 16" fill="none" xmlns="http://www.w3.org/2000/svg">
    <path d="M1 7.5L123 7.50001" stroke="#E3008C" stroke-linecap="square" stroke-dasharray="3 3"/>
    <path d="M123.5 3.5V11.5" stroke="#E3008C" stroke-linecap="square"/>
    <path d="M0.5 3.5L0.5 11.5" stroke="#E3008C" stroke-linecap="square"/>
    <rect x="125" width="30" height="16" fill="#E3008C"/>
    <path d="M132.511 11H128.903V10.2881H130.379V6.0957L129.004 6.84277L128.723 6.19238L130.551 5.22998H131.228V10.2881H132.511V11ZM137.507 11H133.724V10.3145L135.209 8.83789C135.452 8.59766 135.65 8.38965 135.802 8.21387C135.955 8.03809 136.073 7.87842 136.158 7.73486C136.243 7.58838 136.3 7.45068 136.33 7.32178C136.359 7.19287 136.374 7.05371 136.374 6.9043C136.374 6.76367 136.354 6.63037 136.316 6.50439C136.278 6.37549 136.22 6.2627 136.141 6.16602C136.062 6.06934 135.959 5.99316 135.833 5.9375C135.707 5.88184 135.556 5.854 135.38 5.854C135.137 5.854 134.916 5.9082 134.717 6.0166C134.518 6.125 134.334 6.26562 134.167 6.43848L133.746 5.93311C133.962 5.70459 134.211 5.52148 134.493 5.38379C134.777 5.24609 135.106 5.17725 135.481 5.17725C135.736 5.17725 135.968 5.21533 136.176 5.2915C136.387 5.36768 136.568 5.47754 136.721 5.62109C136.873 5.76465 136.99 5.94043 137.072 6.14844C137.157 6.35645 137.2 6.59082 137.2 6.85156C137.2 7.07129 137.17 7.2749 137.112 7.4624C137.053 7.6499 136.964 7.8374 136.844 8.0249C136.727 8.20947 136.577 8.40137 136.396 8.60059C136.217 8.7998 136.004 9.01807 135.758 9.25537L134.717 10.2705H137.507V11ZM142.741 9.72998H141.761V11H140.979V9.72998H138.215V9.05762L140.663 5.25635H141.761V9.05762H142.741V9.72998ZM140.979 5.99463L138.979 9.05762H140.979V5.99463ZM147.448 8.71484C147.448 9.10742 147.392 9.4502 147.281 9.74316C147.172 10.0361 147.021 10.2793 146.828 10.4727C146.635 10.666 146.406 10.811 146.143 10.9077C145.879 11.0044 145.593 11.0527 145.286 11.0527C145.145 11.0527 145.004 11.0454 144.864 11.0308C144.726 11.0161 144.585 10.9912 144.442 10.9561V12.8018H143.677V6.58789H144.358L144.407 7.32617C144.626 7.02441 144.861 6.81348 145.11 6.69336C145.359 6.57031 145.628 6.50879 145.918 6.50879C146.17 6.50879 146.392 6.56152 146.582 6.66699C146.772 6.77246 146.932 6.92188 147.061 7.11523C147.19 7.30566 147.287 7.53711 147.351 7.80957C147.416 8.0791 147.448 8.38086 147.448 8.71484ZM146.666 8.75C146.666 8.51855 146.648 8.30615 146.613 8.11279C146.581 7.91943 146.528 7.75391 146.455 7.61621C146.381 7.47852 146.288 7.37158 146.173 7.29541C146.059 7.21631 145.923 7.17676 145.765 7.17676C145.668 7.17676 145.57 7.19287 145.47 7.2251C145.371 7.25439 145.267 7.30566 145.158 7.37891C145.053 7.44922 144.94 7.54443 144.82 7.66455C144.703 7.78174 144.577 7.92822 144.442 8.104V10.2441C144.583 10.3027 144.73 10.3496 144.886 10.3848C145.041 10.417 145.193 10.4331 145.343 10.4331C145.756 10.4331 146.08 10.2939 146.314 10.0156C146.548 9.73438 146.666 9.3125 146.666 8.75ZM152.181 10.9385C152.008 10.9824 151.829 11.0132 151.645 11.0308C151.46 11.0513 151.272 11.0615 151.082 11.0615C150.528 11.0615 150.115 10.937 149.843 10.688C149.57 10.436 149.434 10.0508 149.434 9.53223V7.22949H148.199V6.58789H149.434V5.375L150.199 5.17725V6.58789H152.181V7.22949H150.199V9.4707C150.199 9.78711 150.282 10.0244 150.449 10.1826C150.619 10.3379 150.868 10.4155 151.196 10.4155C151.337 10.4155 151.491 10.4053 151.658 10.3848C151.825 10.3613 151.999 10.3262 152.181 10.2793V10.9385Z" fill="white"/>
</svg>
