<svg width="124" height="26" viewBox="0 0 124 26" fill="none" xmlns="http://www.w3.org/2000/svg">
    <path d="M1 4.5L123 4.50001" stroke="#E3008C" stroke-linecap="square" stroke-dasharray="3 3"/>
    <path d="M123.5 0.5V8.5" stroke="#E3008C" stroke-linecap="square"/>
    <path d="M0.5 0.5L0.5 8.5" stroke="#E3008C" stroke-linecap="square"/>
    <rect x="47" y="10" width="30" height="16" fill="#E3008C"/>
    <path d="M54.5107 21H50.9028V20.2881H52.3794V16.0957L51.0039 16.8428L50.7227 16.1924L52.5508 15.23H53.2275V20.2881H54.5107V21ZM59.5073 21H55.7236V20.3145L57.209 18.8379C57.4521 18.5977 57.6499 18.3896 57.8022 18.2139C57.9546 18.0381 58.0732 17.8784 58.1582 17.7349C58.2432 17.5884 58.3003 17.4507 58.3296 17.3218C58.3589 17.1929 58.3735 17.0537 58.3735 16.9043C58.3735 16.7637 58.3545 16.6304 58.3164 16.5044C58.2783 16.3755 58.2197 16.2627 58.1406 16.166C58.0615 16.0693 57.959 15.9932 57.833 15.9375C57.707 15.8818 57.5562 15.854 57.3804 15.854C57.1372 15.854 56.916 15.9082 56.7168 16.0166C56.5176 16.125 56.3345 16.2656 56.1675 16.4385L55.7456 15.9331C55.9624 15.7046 56.2114 15.5215 56.4927 15.3838C56.7769 15.2461 57.1064 15.1772 57.4814 15.1772C57.7363 15.1772 57.9678 15.2153 58.1758 15.2915C58.3867 15.3677 58.5684 15.4775 58.7207 15.6211C58.873 15.7646 58.9902 15.9404 59.0723 16.1484C59.1572 16.3564 59.1997 16.5908 59.1997 16.8516C59.1997 17.0713 59.1704 17.2749 59.1118 17.4624C59.0532 17.6499 58.9639 17.8374 58.8438 18.0249C58.7266 18.2095 58.5771 18.4014 58.3955 18.6006C58.2168 18.7998 58.0044 19.0181 57.7583 19.2554L56.7168 20.2705H59.5073V21ZM64.7412 19.73H63.7612V21H62.979V19.73H60.2148V19.0576L62.6626 15.2563H63.7612V19.0576H64.7412V19.73ZM62.979 15.9946L60.9795 19.0576H62.979V15.9946ZM69.4478 18.7148C69.4478 19.1074 69.3921 19.4502 69.2808 19.7432C69.1724 20.0361 69.0215 20.2793 68.8281 20.4727C68.6348 20.666 68.4062 20.811 68.1426 20.9077C67.8789 21.0044 67.5933 21.0527 67.2856 21.0527C67.145 21.0527 67.0044 21.0454 66.8638 21.0308C66.7261 21.0161 66.5854 20.9912 66.4419 20.9561V22.8018H65.6772V16.5879H66.3584L66.4067 17.3262C66.6265 17.0244 66.8608 16.8135 67.1099 16.6934C67.3589 16.5703 67.6284 16.5088 67.9185 16.5088C68.1704 16.5088 68.3916 16.5615 68.582 16.667C68.7725 16.7725 68.9321 16.9219 69.061 17.1152C69.1899 17.3057 69.2866 17.5371 69.3511 17.8096C69.4155 18.0791 69.4478 18.3809 69.4478 18.7148ZM68.6655 18.75C68.6655 18.5186 68.6479 18.3062 68.6128 18.1128C68.5806 17.9194 68.5278 17.7539 68.4546 17.6162C68.3813 17.4785 68.2876 17.3716 68.1733 17.2954C68.0591 17.2163 67.9229 17.1768 67.7646 17.1768C67.668 17.1768 67.5698 17.1929 67.4702 17.2251C67.3706 17.2544 67.2666 17.3057 67.1582 17.3789C67.0527 17.4492 66.9399 17.5444 66.8198 17.6646C66.7026 17.7817 66.5767 17.9282 66.4419 18.104V20.2441C66.5825 20.3027 66.7305 20.3496 66.8857 20.3848C67.041 20.417 67.1934 20.4331 67.3428 20.4331C67.7559 20.4331 68.0796 20.2939 68.314 20.0156C68.5483 19.7344 68.6655 19.3125 68.6655 18.75ZM74.1807 20.9385C74.0078 20.9824 73.8291 21.0132 73.6445 21.0308C73.46 21.0513 73.2725 21.0615 73.082 21.0615C72.5283 21.0615 72.1152 20.937 71.8428 20.688C71.5703 20.436 71.4341 20.0508 71.4341 19.5322V17.2295H70.1992V16.5879H71.4341V15.375L72.1987 15.1772V16.5879H74.1807V17.2295H72.1987V19.4707C72.1987 19.7871 72.2822 20.0244 72.4492 20.1826C72.6191 20.3379 72.8682 20.4155 73.1963 20.4155C73.3369 20.4155 73.4907 20.4053 73.6577 20.3848C73.8247 20.3613 73.999 20.3262 74.1807 20.2793V20.9385Z" fill="white"/>
</svg>
