<svg width="155" height="16" viewBox="0 0 155 16" fill="none" xmlns="http://www.w3.org/2000/svg">
    <path d="M32 7.5L154 7.50001" stroke="#E3008C" stroke-linecap="square" stroke-dasharray="3 3"/>
    <path d="M154.5 3.5V11.5" stroke="#E3008C" stroke-linecap="square"/>
    <path d="M31.5 3.5V11.5" stroke="#E3008C" stroke-linecap="square"/>
    <rect width="30" height="16" fill="#E3008C"/>
    <path d="M7.51074 11H3.90283V10.2881H5.37939V6.0957L4.00391 6.84277L3.72266 6.19238L5.55078 5.22998H6.22754V10.2881H7.51074V11ZM12.5073 11H8.72363V10.3145L10.209 8.83789C10.4521 8.59766 10.6499 8.38965 10.8022 8.21387C10.9546 8.03809 11.0732 7.87842 11.1582 7.73486C11.2432 7.58838 11.3003 7.45068 11.3296 7.32178C11.3589 7.19287 11.3735 7.05371 11.3735 6.9043C11.3735 6.76367 11.3545 6.63037 11.3164 6.50439C11.2783 6.37549 11.2197 6.2627 11.1406 6.16602C11.0615 6.06934 10.959 5.99316 10.833 5.9375C10.707 5.88184 10.5562 5.854 10.3804 5.854C10.1372 5.854 9.91602 5.9082 9.7168 6.0166C9.51758 6.125 9.33447 6.26562 9.16748 6.43848L8.74561 5.93311C8.9624 5.70459 9.21143 5.52148 9.49268 5.38379C9.77686 5.24609 10.1064 5.17725 10.4814 5.17725C10.7363 5.17725 10.9678 5.21533 11.1758 5.2915C11.3867 5.36768 11.5684 5.47754 11.7207 5.62109C11.873 5.76465 11.9902 5.94043 12.0723 6.14844C12.1572 6.35645 12.1997 6.59082 12.1997 6.85156C12.1997 7.07129 12.1704 7.2749 12.1118 7.4624C12.0532 7.6499 11.9639 7.8374 11.8438 8.0249C11.7266 8.20947 11.5771 8.40137 11.3955 8.60059C11.2168 8.7998 11.0044 9.01807 10.7583 9.25537L9.7168 10.2705H12.5073V11ZM17.7412 9.72998H16.7612V11H15.979V9.72998H13.2148V9.05762L15.6626 5.25635H16.7612V9.05762H17.7412V9.72998ZM15.979 5.99463L13.9795 9.05762H15.979V5.99463ZM22.4478 8.71484C22.4478 9.10742 22.3921 9.4502 22.2808 9.74316C22.1724 10.0361 22.0215 10.2793 21.8281 10.4727C21.6348 10.666 21.4062 10.811 21.1426 10.9077C20.8789 11.0044 20.5933 11.0527 20.2856 11.0527C20.145 11.0527 20.0044 11.0454 19.8638 11.0308C19.7261 11.0161 19.5854 10.9912 19.4419 10.9561V12.8018H18.6772V6.58789H19.3584L19.4067 7.32617C19.6265 7.02441 19.8608 6.81348 20.1099 6.69336C20.3589 6.57031 20.6284 6.50879 20.9185 6.50879C21.1704 6.50879 21.3916 6.56152 21.582 6.66699C21.7725 6.77246 21.9321 6.92188 22.061 7.11523C22.1899 7.30566 22.2866 7.53711 22.3511 7.80957C22.4155 8.0791 22.4478 8.38086 22.4478 8.71484ZM21.6655 8.75C21.6655 8.51855 21.6479 8.30615 21.6128 8.11279C21.5806 7.91943 21.5278 7.75391 21.4546 7.61621C21.3813 7.47852 21.2876 7.37158 21.1733 7.29541C21.0591 7.21631 20.9229 7.17676 20.7646 7.17676C20.668 7.17676 20.5698 7.19287 20.4702 7.2251C20.3706 7.25439 20.2666 7.30566 20.1582 7.37891C20.0527 7.44922 19.9399 7.54443 19.8198 7.66455C19.7026 7.78174 19.5767 7.92822 19.4419 8.104V10.2441C19.5825 10.3027 19.7305 10.3496 19.8857 10.3848C20.041 10.417 20.1934 10.4331 20.3428 10.4331C20.7559 10.4331 21.0796 10.2939 21.314 10.0156C21.5483 9.73438 21.6655 9.3125 21.6655 8.75ZM27.1807 10.9385C27.0078 10.9824 26.8291 11.0132 26.6445 11.0308C26.46 11.0513 26.2725 11.0615 26.082 11.0615C25.5283 11.0615 25.1152 10.937 24.8428 10.688C24.5703 10.436 24.4341 10.0508 24.4341 9.53223V7.22949H23.1992V6.58789H24.4341V5.375L25.1987 5.17725V6.58789H27.1807V7.22949H25.1987V9.4707C25.1987 9.78711 25.2822 10.0244 25.4492 10.1826C25.6191 10.3379 25.8682 10.4155 26.1963 10.4155C26.3369 10.4155 26.4907 10.4053 26.6577 10.3848C26.8247 10.3613 26.999 10.3262 27.1807 10.2793V10.9385Z" fill="white"/>
</svg>
