<svg width="40" height="80" viewBox="0 0 40 80" fill="none" xmlns="http://www.w3.org/2000/svg">
    <path d="M4.5 1L4.49999 79" stroke="#E3008C" stroke-linecap="square" stroke-dasharray="3 3"/>
    <path d="M8.5 79.5L0.5 79.5" stroke="#E3008C" stroke-linecap="square"/>
    <path d="M8.5 0.5L0.5 0.5" stroke="#E3008C" stroke-linecap="square"/>
    <rect x="10" y="32" width="30" height="16" fill="#E3008C"/>
    <path d="M19.5332 41.5586C19.5332 41.8018 19.4834 42.0186 19.3838 42.209C19.2842 42.3965 19.145 42.5547 18.9663 42.6836C18.7876 42.8125 18.5767 42.9106 18.3335 42.978C18.0903 43.0454 17.8267 43.0791 17.5425 43.0791C17.229 43.0791 16.9521 43.0439 16.7119 42.9736C16.4746 42.9033 16.2754 42.8052 16.1143 42.6792C15.9531 42.5532 15.8315 42.4038 15.7495 42.231C15.6675 42.0581 15.6265 41.8677 15.6265 41.6597C15.6265 41.3081 15.7246 41.0049 15.9209 40.75C16.1172 40.4951 16.4204 40.2637 16.8306 40.0557C16.4556 39.8652 16.1816 39.6543 16.0088 39.4229C15.8359 39.1885 15.7495 38.9204 15.7495 38.6187C15.7495 38.4341 15.7876 38.2554 15.8638 38.0825C15.9399 37.9097 16.0542 37.7559 16.2065 37.6211C16.3618 37.4863 16.5552 37.3794 16.7866 37.3003C17.0181 37.2183 17.2905 37.1772 17.604 37.1772C17.8999 37.1772 18.1592 37.2095 18.3818 37.2739C18.6074 37.3354 18.7964 37.4248 18.9487 37.542C19.1011 37.6592 19.2153 37.8013 19.2915 37.9683C19.3677 38.1353 19.4058 38.3213 19.4058 38.5264C19.4058 38.8604 19.312 39.1445 19.1245 39.3789C18.9399 39.6133 18.6763 39.8184 18.3335 39.9941C18.5034 40.0791 18.6616 40.1729 18.8081 40.2754C18.9546 40.3779 19.082 40.4922 19.1904 40.6182C19.2988 40.7441 19.3823 40.8848 19.4409 41.04C19.5024 41.1953 19.5332 41.3682 19.5332 41.5586ZM18.6235 38.5879C18.6235 38.3271 18.5312 38.1338 18.3467 38.0078C18.165 37.8789 17.9087 37.8145 17.5776 37.8145C17.2495 37.8145 16.9932 37.8774 16.8086 38.0034C16.627 38.1294 16.5361 38.3184 16.5361 38.5703C16.5361 38.6846 16.5581 38.79 16.6021 38.8867C16.646 38.9834 16.7134 39.0742 16.8042 39.1592C16.8979 39.2441 17.0137 39.3276 17.1514 39.4097C17.2891 39.4917 17.4531 39.5752 17.6436 39.6602C17.9746 39.5049 18.2207 39.3438 18.3818 39.1768C18.543 39.0068 18.6235 38.8105 18.6235 38.5879ZM18.7026 41.6157C18.7026 41.5073 18.6851 41.4019 18.6499 41.2993C18.6147 41.1968 18.5518 41.0957 18.4609 40.9961C18.3701 40.8965 18.2485 40.7969 18.0962 40.6973C17.9438 40.5977 17.7505 40.4951 17.5161 40.3896C17.3169 40.4863 17.1484 40.583 17.0107 40.6797C16.876 40.7734 16.7661 40.8701 16.6812 40.9697C16.5991 41.0664 16.5405 41.1675 16.5054 41.2729C16.4702 41.3784 16.4526 41.4897 16.4526 41.6069C16.4526 41.7388 16.4805 41.856 16.5361 41.9585C16.5947 42.0581 16.6738 42.1431 16.7734 42.2134C16.873 42.2837 16.9917 42.3364 17.1294 42.3716C17.2671 42.4067 17.4165 42.4243 17.5776 42.4243C17.7329 42.4243 17.8794 42.4082 18.0171 42.376C18.1548 42.3438 18.2734 42.2954 18.373 42.231C18.4756 42.1636 18.5562 42.0801 18.6147 41.9805C18.6733 41.8779 18.7026 41.7563 18.7026 41.6157ZM24.6133 40.1304C24.6133 40.5698 24.5693 40.9712 24.4814 41.3345C24.3936 41.6948 24.2603 42.0054 24.0815 42.2661C23.9028 42.5239 23.6802 42.7246 23.4136 42.8682C23.1499 43.0088 22.8394 43.0791 22.4819 43.0791C22.1743 43.0791 21.8945 43.022 21.6426 42.9077C21.3906 42.7905 21.1753 42.6118 20.9966 42.3716C20.8179 42.1313 20.6802 41.8252 20.5835 41.4531C20.4868 41.0811 20.4385 40.6401 20.4385 40.1304C20.4385 39.6909 20.4824 39.2896 20.5703 38.9263C20.6611 38.563 20.7944 38.2524 20.9702 37.9946C21.1489 37.7339 21.3716 37.5332 21.6382 37.3926C21.9048 37.249 22.2153 37.1772 22.5698 37.1772C22.8774 37.1772 23.1572 37.2358 23.4092 37.353C23.6611 37.4673 23.8765 37.646 24.0552 37.8892C24.2339 38.1294 24.3716 38.4355 24.4683 38.8076C24.5649 39.1797 24.6133 39.6206 24.6133 40.1304ZM23.8398 40.1567C23.8398 40.0571 23.8354 39.959 23.8267 39.8623C23.8208 39.7627 23.8135 39.666 23.8047 39.5723L21.3745 41.3784C21.4185 41.5308 21.4741 41.6714 21.5415 41.8003C21.6089 41.9292 21.6895 42.0405 21.7832 42.1343C21.8799 42.2251 21.9883 42.2969 22.1084 42.3496C22.2314 42.3994 22.3706 42.4243 22.5259 42.4243C22.7251 42.4243 22.9053 42.376 23.0664 42.2793C23.2305 42.1826 23.3696 42.0391 23.4839 41.8486C23.5981 41.6582 23.686 41.4224 23.7476 41.1411C23.8091 40.8569 23.8398 40.5288 23.8398 40.1567ZM21.2119 40.104C21.2119 40.1948 21.2119 40.2856 21.2119 40.3765C21.2148 40.4673 21.2207 40.5552 21.2295 40.6401L23.6597 38.8428C23.6157 38.6934 23.5601 38.5571 23.4927 38.4341C23.4253 38.311 23.3447 38.2056 23.251 38.1177C23.1572 38.0269 23.0503 37.9565 22.9302 37.9067C22.8101 37.8569 22.6753 37.832 22.5259 37.832C22.3267 37.832 22.145 37.8804 21.981 37.9771C21.8198 38.0737 21.6821 38.2188 21.5679 38.4121C21.4536 38.6025 21.3657 38.8398 21.3042 39.124C21.2427 39.4053 21.2119 39.7319 21.2119 40.104ZM29.4736 40.7148C29.4736 41.1074 29.418 41.4502 29.3066 41.7432C29.1982 42.0361 29.0474 42.2793 28.854 42.4727C28.6606 42.666 28.4321 42.811 28.1685 42.9077C27.9048 43.0044 27.6191 43.0527 27.3115 43.0527C27.1709 43.0527 27.0303 43.0454 26.8896 43.0308C26.752 43.0161 26.6113 42.9912 26.4678 42.9561V44.8018H25.7031V38.5879H26.3843L26.4326 39.3262C26.6523 39.0244 26.8867 38.8135 27.1357 38.6934C27.3848 38.5703 27.6543 38.5088 27.9443 38.5088C28.1963 38.5088 28.4175 38.5615 28.6079 38.667C28.7983 38.7725 28.958 38.9219 29.0869 39.1152C29.2158 39.3057 29.3125 39.5371 29.377 39.8096C29.4414 40.0791 29.4736 40.3809 29.4736 40.7148ZM28.6914 40.75C28.6914 40.5186 28.6738 40.3062 28.6387 40.1128C28.6064 39.9194 28.5537 39.7539 28.4805 39.6162C28.4072 39.4785 28.3135 39.3716 28.1992 39.2954C28.085 39.2163 27.9487 39.1768 27.7905 39.1768C27.6938 39.1768 27.5957 39.1929 27.4961 39.2251C27.3965 39.2544 27.2925 39.3057 27.1841 39.3789C27.0786 39.4492 26.9658 39.5444 26.8457 39.6646C26.7285 39.7817 26.6025 39.9282 26.4678 40.104V42.2441C26.6084 42.3027 26.7563 42.3496 26.9116 42.3848C27.0669 42.417 27.2192 42.4331 27.3687 42.4331C27.7817 42.4331 28.1055 42.2939 28.3398 42.0156C28.5742 41.7344 28.6914 41.3125 28.6914 40.75ZM34.2065 42.9385C34.0337 42.9824 33.855 43.0132 33.6704 43.0308C33.4858 43.0513 33.2983 43.0615 33.1079 43.0615C32.5542 43.0615 32.1411 42.937 31.8687 42.688C31.5962 42.436 31.46 42.0508 31.46 41.5322V39.2295H30.2251V38.5879H31.46V37.375L32.2246 37.1772V38.5879H34.2065V39.2295H32.2246V41.4707C32.2246 41.7871 32.3081 42.0244 32.4751 42.1826C32.645 42.3379 32.894 42.4155 33.2222 42.4155C33.3628 42.4155 33.5166 42.4053 33.6836 42.3848C33.8506 42.3613 34.0249 42.3262 34.2065 42.2793V42.9385Z" fill="white"/>
</svg>
