<svg width="164" height="120" viewBox="0 0 164 120" fill="none" xmlns="http://www.w3.org/2000/svg">
    <rect x="20.5" y="20.5" width="123" height="79" fill="none" stroke="#18A0FB"/>
    <rect x="17.5" y="17.5" width="7" height="7" fill="white" stroke="#18A0FB"/>
    <rect x="139.5" y="17.5" width="7" height="7" fill="white" stroke="#18A0FB"/>
    <rect x="17.5" y="95.5" width="7" height="7" fill="white" stroke="#18A0FB"/>
    <rect x="139.5" y="95.5" width="7" height="7" fill="white" stroke="#18A0FB"/>
    <path d="M26.3438 10H27.2813C27.2383 8.79297 26.125 7.89062 24.5781 7.89062C23.0469 7.89062 21.8438 8.78125 21.8438 10.125C21.8438 11.2031 22.625 11.8438 23.875 12.2031L24.8594 12.4844C25.7031 12.7187 26.4531 13.0156 26.4531 13.8125C26.4531 14.6875 25.6094 15.2656 24.5 15.2656C23.5469 15.2656 22.7031 14.8437 22.625 13.9375H21.625C21.7188 15.25 22.7813 16.1406 24.5 16.1406C26.3438 16.1406 27.3906 15.125 27.3906 13.8281C27.3906 12.3281 25.9688 11.8438 25.1406 11.625L24.3281 11.4062C23.7344 11.25 22.7813 10.9375 22.7813 10.0781C22.7813 9.3125 23.4844 8.75 24.5469 8.75C25.5156 8.75 26.25 9.21094 26.3438 10ZM31.374 16.125C32.5928 16.125 33.4834 15.5156 33.7646 14.6094L32.874 14.3594C32.6396 14.9844 32.0967 15.2969 31.374 15.2969C30.292 15.2969 29.5459 14.5977 29.5029 13.3125H33.8584V12.9219C33.8584 10.6875 32.5303 9.92188 31.2803 9.92188C29.6553 9.92188 28.5771 11.2031 28.5771 13.0469C28.5771 14.8906 29.6396 16.125 31.374 16.125ZM29.5029 12.5156C29.5654 11.582 30.2256 10.75 31.2803 10.75C32.2803 10.75 32.9209 11.5 32.9209 12.5156H29.5029ZM36.1826 8H35.2607V16H36.1826V8ZM40.3867 16.125C41.6055 16.125 42.4961 15.5156 42.7773 14.6094L41.8867 14.3594C41.6523 14.9844 41.1094 15.2969 40.3867 15.2969C39.3047 15.2969 38.5586 14.5977 38.5156 13.3125H42.8711V12.9219C42.8711 10.6875 41.543 9.92188 40.293 9.92188C38.668 9.92188 37.5898 11.2031 37.5898 13.0469C37.5898 14.8906 38.6523 16.125 40.3867 16.125ZM38.5156 12.5156C38.5781 11.582 39.2383 10.75 40.293 10.75C41.293 10.75 41.9336 11.5 41.9336 12.5156H38.5156ZM46.7109 16.125C48.0391 16.125 48.9141 15.3125 49.0703 14.25H48.1484C47.9766 14.9062 47.4297 15.2969 46.7109 15.2969C45.6172 15.2969 44.9141 14.3906 44.9141 13C44.9141 11.6406 45.6328 10.75 46.7109 10.75C47.5234 10.75 48.0078 11.25 48.1484 11.7969H49.0703C48.9141 10.6719 47.9609 9.92188 46.6953 9.92188C45.0703 9.92188 43.9922 11.2031 43.9922 13.0312C43.9922 14.8281 45.0234 16.125 46.7109 16.125ZM53.0273 10H51.7461V8.5625H50.8242V10H49.918V10.7812H50.8242V14.5312C50.8242 15.5781 51.668 16.0781 52.4492 16.0781C52.793 16.0781 53.0117 16.0156 53.1367 15.9687L52.9492 15.1406C52.8711 15.1562 52.7461 15.1875 52.543 15.1875C52.1367 15.1875 51.7461 15.0625 51.7461 14.2812V10.7812H53.0273V10ZM54.4141 16H55.3359V10H54.4141V16ZM54.8828 9C55.2422 9 55.5391 8.71875 55.5391 8.375C55.5391 8.03125 55.2422 7.75 54.8828 7.75C54.5234 7.75 54.2266 8.03125 54.2266 8.375C54.2266 8.71875 54.5234 9 54.8828 9ZM59.4619 16.125C61.0869 16.125 62.1807 14.8906 62.1807 13.0312C62.1807 11.1562 61.0869 9.92188 59.4619 9.92188C57.8369 9.92188 56.7432 11.1562 56.7432 13.0312C56.7432 14.8906 57.8369 16.125 59.4619 16.125ZM59.4619 15.2969C58.2275 15.2969 57.665 14.2344 57.665 13.0312C57.665 11.8281 58.2275 10.75 59.4619 10.75C60.6963 10.75 61.2588 11.8281 61.2588 13.0312C61.2588 14.2344 60.6963 15.2969 59.4619 15.2969ZM64.5098 12.3906C64.5098 11.3437 65.1582 10.75 66.041 10.75C66.8965 10.75 67.416 11.3086 67.416 12.25V16H68.3379V12.1875C68.3379 10.6562 67.5215 9.92188 66.3066 9.92188C65.4004 9.92188 64.8379 10.3281 64.5566 10.9375H64.4785V10H63.5879V16H64.5098V12.3906Z" fill="#18A0FB"/>
</svg>
